<svg width="92" height="92" viewBox="0 0 92 92" fill="none" xmlns="http://www.w3.org/2000/svg">
<rect width="92" height="92" rx="20" fill="#E5E5E5"/>
<mask id="mask0_41083_283156" style="mask-type:alpha" maskUnits="userSpaceOnUse" x="20" y="17" width="52" height="59">
<path d="M46.7257 75.1264C50.9323 73.7063 72 66.1447 72 46.5565V29.2861C72 26.6618 70.2945 24.342 67.7897 23.5593L47.7896 17.3093C46.6243 16.9451 45.3757 16.9451 44.2104 17.3093L24.2104 23.5593C21.7055 24.342 20 26.6618 20 29.2861V46.5565C20 66.9572 41.0677 73.7063 45.2743 75.1264C45.7446 75.2912 46.2554 75.2912 46.7257 75.1264Z" fill="white"/>
</mask>
<g mask="url(#mask0_41083_283156)">
<path d="M46.7257 75.1264C50.9323 73.7063 72 66.1447 72 46.5565V29.2861C72 26.6618 70.2945 24.342 67.7897 23.5593L47.7896 17.3093C46.6243 16.9451 45.3757 16.9451 44.2104 17.3093L24.2104 23.5593C21.7055 24.342 20 26.6618 20 29.2861V46.5565C20 66.9572 41.0677 73.7063 45.2743 75.1264C45.7446 75.2912 46.2554 75.2912 46.7257 75.1264Z" fill="white"/>
<path d="M35 43.7275H56.4545" stroke="#E5E5E5" stroke-width="6"/>
<path d="M45.7266 54.4545V33" stroke="#E5E5E5" stroke-width="6"/>
</g>
</svg>
