<svg width="79" height="90" viewBox="0 0 79 90" fill="none" xmlns="http://www.w3.org/2000/svg">
<path fill-rule="evenodd" clip-rule="evenodd" d="M44.4898 60.5057C31.0562 77.4927 17.0288 76.8209 2.81733 69.2302C1.23736 68.1125 0.283203 66.2904 0.283203 64.3324V25.8129C0.283203 23.6693 1.4268 21.6886 3.2832 20.6168L36.642 1.35707C38.1443 0.489734 39.9287 0.324282 41.5385 0.860693C55.8459 9.50355 64.2327 20.8617 55.5034 41.7545L54.7047 36.0935C54.6187 35.4843 54.2571 34.9485 53.7243 34.6409L41.6324 27.6596C41.1656 27.3901 40.6098 27.3205 40.0909 27.4664L34.4686 29.0479C33.9662 29.1892 33.539 29.5212 33.2781 29.9732L31.9062 32.3494C31.4149 33.2002 31.7065 34.2882 32.5573 34.7794L43.746 41.2392C44.3305 41.5767 44.7054 42.1862 44.7429 42.8601L44.9644 46.8409C45.0086 47.6342 44.5789 48.3785 43.8697 48.7369L40.3116 50.5355C39.7092 50.84 38.9939 50.8201 38.4093 50.4826L27.4121 44.1333C26.4555 43.5811 25.2323 43.9088 24.6801 44.8654L23.4187 47.0501C23.1578 47.5021 23.0838 48.0381 23.2126 48.5438L24.6542 54.2036C24.7872 54.7259 25.1255 55.1724 25.5923 55.442L37.6841 62.4232C38.217 62.7308 38.8618 62.7761 39.4324 62.5459L44.4898 60.5057Z" fill="#E5E5E5"/>
<path fill-rule="evenodd" clip-rule="evenodd" d="M50.1684 58.8939C48.3743 57.8581 46.092 58.3834 44.8082 60.0094C30.8942 77.6323 16.1897 75.9949 1.25433 67.3719C1.19442 67.3373 1.12849 67.4027 1.16457 67.4617C1.67867 68.3025 2.40038 69.0179 3.28334 69.5277L36.6422 88.7874C38.4986 89.8592 40.7858 89.8592 42.6422 88.7874L66.2938 75.1321C68.9605 73.5925 68.9605 69.7435 66.2938 68.2039L50.1684 58.8939ZM55.4467 41.9055C54.6355 43.8402 55.3128 46.1205 57.1297 47.1695L73.001 56.3328C75.6676 57.8724 79.001 55.9479 79.001 52.8687V25.8121C79.001 23.6685 77.8574 21.6877 76.001 20.6159L42.6422 1.3562C42.1332 1.06237 41.9233 1.58019 42.4212 1.89235C56.1058 10.4723 63.9031 21.7381 55.4467 41.9055Z" fill="#EDEDED"/>
</svg>
