<svg width="105" height="76" viewBox="0 0 105 76" fill="none" xmlns="http://www.w3.org/2000/svg">
<path fill-rule="evenodd" clip-rule="evenodd" d="M0.797062 75.3816C7.85375 75.3749 13.5723 69.6523 13.5723 62.5941C13.5723 61.7178 13.4841 60.8622 13.3162 60.0355L14.6302 58.4248L69.5173 69.1345V75.3818H0.796875L0.797062 75.3816Z" fill="#3277FF"/>
<circle cx="33.8139" cy="53.9623" r="21.4193" fill="#3277FF"/>
<circle cx="67.5171" cy="37.8979" r="37.4839" fill="#3277FF"/>
<path d="M57.8589 42.3666C57.8589 44.8279 55.8727 46.8231 53.4226 46.8231C50.9725 46.8231 48.9863 44.8279 48.9863 42.3666V33.4538C48.9863 30.9925 50.9725 28.9973 53.4226 28.9973C55.8727 28.9973 57.8589 30.9925 57.8589 33.4538M77.5977 33.6883V32.7501C77.5977 31.4992 78.679 29.1923 80.9249 28.9973C84.2397 28.7095 85.3611 31.1083 85.3611 32.7501C85.3611 33.6883 85.3611 35.5647 83.143 38.3793L77.5977 45.4387V46.3769H86.4702M67.7283 46.8231C65.2782 46.8231 63.292 44.8279 63.292 42.3666V33.4538C63.292 30.9925 65.2782 28.9973 67.7283 28.9973C70.1783 28.9973 72.1645 30.9925 72.1645 33.4538V42.3666C72.1645 44.8279 70.1783 46.8231 67.7283 46.8231Z" stroke="white" stroke-width="3.4188"/>
</svg>
