<svg width="105" height="76" viewBox="0 0 105 76" fill="none" xmlns="http://www.w3.org/2000/svg">
<path fill-rule="evenodd" clip-rule="evenodd" d="M0.797062 75.3811C7.85375 75.3745 13.5723 69.6519 13.5723 62.5936C13.5723 61.7174 13.4841 60.8617 13.3162 60.035L14.6302 58.4243L69.5173 69.134V75.3813H0.796875L0.797062 75.3811Z" fill="#E5E5E5"/>
<circle cx="33.8139" cy="53.9618" r="21.4193" fill="#E5E5E5"/>
<circle cx="67.5171" cy="37.8974" r="37.4839" fill="#E5E5E5"/>
<path d="M57.8589 42.3657C57.8589 44.8269 55.8727 46.8221 53.4226 46.8221C50.9725 46.8221 48.9863 44.8269 48.9863 42.3657V33.4528C48.9863 30.9916 50.9725 28.9963 53.4226 28.9963C55.8727 28.9963 57.8589 30.9916 57.8589 33.4528M77.5977 33.6873V32.7491C77.5977 31.4982 78.679 29.1913 80.9249 28.9963C84.2397 28.7086 85.3611 31.1073 85.3611 32.7491C85.3611 33.6873 85.3611 35.5637 83.143 38.3783L77.5977 45.4377V46.3759H86.4702M67.7283 46.8221C65.2782 46.8221 63.292 44.8269 63.292 42.3657V33.4528C63.292 30.9916 65.2782 28.9963 67.7283 28.9963C70.1783 28.9963 72.1645 30.9916 72.1645 33.4528V42.3657C72.1645 44.8269 70.1783 46.8221 67.7283 46.8221Z" stroke="white" stroke-width="3.4188"/>
</svg>
