<svg width="79" height="90" viewBox="0 0 79 90" fill="none" xmlns="http://www.w3.org/2000/svg">
<path fill-rule="evenodd" clip-rule="evenodd" d="M44.4898 60.5052C31.0562 77.4922 17.0288 76.8204 2.81733 69.2297C1.23736 68.112 0.283203 66.2899 0.283203 64.3319V25.8125C0.283203 23.6689 1.4268 21.6881 3.2832 20.6163L36.642 1.35658C38.1443 0.489246 39.9287 0.323793 41.5385 0.860204C55.8459 9.50306 64.2327 20.8612 55.5034 41.754L54.7047 36.093C54.6187 35.4838 54.2571 34.948 53.7243 34.6404L41.6324 27.6592C41.1656 27.3896 40.6098 27.32 40.0909 27.4659L34.4686 29.0474C33.9662 29.1887 33.539 29.5207 33.2781 29.9727L31.9062 32.3489C31.4149 33.1997 31.7065 34.2877 32.5573 34.7789L43.746 41.2387C44.3305 41.5762 44.7054 42.1857 44.7429 42.8597L44.9644 46.8404C45.0086 47.6337 44.5789 48.378 43.8697 48.7364L40.3116 50.535C39.7092 50.8395 38.9939 50.8196 38.4093 50.4821L27.4121 44.1329C26.4555 43.5806 25.2323 43.9083 24.6801 44.8649L23.4187 47.0497C23.1578 47.5016 23.0838 48.0376 23.2126 48.5433L24.6542 54.2031C24.7872 54.7254 25.1255 55.172 25.5923 55.4415L37.6841 62.4227C38.217 62.7303 38.8618 62.7756 39.4324 62.5454L44.4898 60.5052Z" fill="#3277FF"/>
<path fill-rule="evenodd" clip-rule="evenodd" d="M50.1684 58.8934C48.3743 57.8576 46.092 58.3829 44.8082 60.0089C30.8942 77.6318 16.1897 75.9944 1.25433 67.3714C1.19442 67.3369 1.12849 67.4022 1.16457 67.4612C1.67867 68.302 2.40038 69.0174 3.28334 69.5272L36.6422 88.7869C38.4986 89.8587 40.7858 89.8587 42.6422 88.7869L66.2938 75.1316C68.9605 73.592 68.9605 69.743 66.2938 68.2034L50.1684 58.8934ZM55.4467 41.905C54.6355 43.8397 55.3128 46.12 57.1297 47.169L73.001 56.3323C75.6676 57.8719 79.001 55.9474 79.001 52.8682V25.8116C79.001 23.668 77.8574 21.6872 76.001 20.6154L42.6422 1.35571C42.1332 1.06188 41.9233 1.5797 42.4212 1.89187C56.1058 10.4718 63.9031 21.7376 55.4467 41.905Z" fill="#8AB2FF"/>
</svg>
