<svg width="92" height="92" viewBox="0 0 92 92" fill="none" xmlns="http://www.w3.org/2000/svg">
<rect width="92" height="92" rx="20" fill="#E5E5E5"/>
<path fill-rule="evenodd" clip-rule="evenodd" d="M39.8042 15C35.7095 15.8129 31.8995 17.4161 28.54 19.6439C30.1528 21.4264 30.6678 24.0563 29.6418 26.4014C28.2462 29.5911 24.5283 31.0462 21.3376 29.6515C20.6951 29.3707 20.1229 28.9957 19.6303 28.5498C17.4156 31.8866 15.8179 35.6681 15 39.7316C15.7483 39.7666 16.5029 39.9364 17.2302 40.2543C20.4209 41.649 21.8762 45.3654 20.4807 48.5551C19.4893 50.8211 17.3258 52.2117 15.012 52.327C15.829 56.3461 17.4091 60.0883 19.5946 63.3956C21.3784 61.7571 24.0293 61.2278 26.3913 62.2603C29.582 63.655 31.0373 67.3714 29.6418 70.5611C29.3504 71.2271 28.9577 71.8175 28.4898 72.3221C31.8624 74.5678 35.691 76.1832 39.8074 77C39.854 76.2907 40.0224 75.5773 40.3238 74.8884C41.7191 71.6992 45.4372 70.2446 48.6283 71.6394C50.8474 72.6094 52.2273 74.7018 52.3929 76.959C56.4469 76.1269 60.2179 74.5192 63.5438 72.2978C61.9096 70.5149 61.383 67.8687 62.4148 65.5104C63.8103 62.3207 67.5282 60.8656 70.719 62.2603C71.3611 62.541 71.9329 62.9157 72.4254 63.3612C74.6014 60.0588 76.1745 56.3242 76.9879 52.314C76.3109 52.2588 75.6313 52.0925 74.9741 51.8052C71.7834 50.4105 70.3281 46.6941 71.7236 43.5044C72.6875 41.3014 74.7593 39.9258 77 39.7451C76.1855 35.6897 74.5946 31.915 72.3887 28.5825C70.6061 30.1689 67.9952 30.6699 65.6653 29.6515C62.4746 28.2568 61.0193 24.5404 62.4148 21.3508C62.6911 20.7192 63.0585 20.1557 63.4947 19.6688C60.182 17.4652 56.4298 15.8696 52.3975 15.0413C52.3526 15.7566 52.1839 16.4763 51.8799 17.1711C50.4846 20.3603 46.7665 21.8149 43.5754 20.4201C41.3234 19.4357 39.9357 17.2954 39.8042 15ZM60 45.5C60 53.5081 53.5081 60 45.5 60C37.4919 60 31 53.5081 31 45.5C31 37.4919 37.4919 31 45.5 31C53.5081 31 60 37.4919 60 45.5ZM45.5 54C50.1944 54 54 50.1944 54 45.5C54 40.8056 50.1944 37 45.5 37C40.8056 37 37 40.8056 37 45.5C37 50.1944 40.8056 54 45.5 54Z" fill="white"/>
</svg>
