<svg width="72" height="83" viewBox="0 0 72 83" fill="none" xmlns="http://www.w3.org/2000/svg">
<path d="M31 15.8475C31 14.7993 31.8092 13.929 32.8546 13.8528L69.8546 11.1563C71.0134 11.0719 72 11.9892 72 13.1511V70.8095C72 71.9857 70.9899 72.908 69.8186 72.8013L32.8186 69.4307C31.7886 69.3369 31 68.4732 31 67.439V15.8475Z" fill="#D9D9D9"/>
<path d="M16 12.2608C16 10.6879 17.2149 9.38206 18.7837 9.26865L60.7837 6.2325C62.5212 6.1069 64 7.48265 64 9.2247V74.7167C64 76.4801 62.4863 77.8632 60.73 77.7045L18.73 73.9093C17.1841 73.7696 16 72.4737 16 70.9215V12.2608Z" fill="#DDDDDD"/>
<path d="M0 8.64957C0 6.02886 2.02352 3.85284 4.63732 3.66274L49.6373 0.390013C52.5339 0.17935 55 2.47257 55 5.37684V77.5248C55 80.465 52.4754 82.7705 49.5473 82.5043L4.54732 78.4134C1.97193 78.1793 0 76.0199 0 73.4339V8.64957Z" fill="#E5E5E5"/>
<path d="M27 31C24.2387 31 12 34.1093 12 37.5625C12 39.1769 13.3943 40.7204 15.913 41.9449V43.4688C15.913 43.558 15.9313 43.6473 15.9665 43.7286C16.0617 43.9504 16.2509 44.1381 16.4857 44.3088C16.4622 44.3783 16.453 44.4256 16.4257 44.5082C16.0852 45.5267 15.4513 47.4246 16.6461 49.0981C18.0391 51.0511 21.4265 52 27 52C32.5748 52 35.9622 51.055 37.3539 49.1138C38.5448 47.4522 37.9174 45.5556 37.5809 44.5371C37.5509 44.4479 37.5404 44.3954 37.5157 44.3206C37.7413 44.1499 37.9278 43.9636 38.0283 43.7404C38.0661 43.6564 38.087 43.5633 38.087 43.4701V41.9686C40.6057 40.7493 42 39.1979 42 37.5638C42 34.1093 29.7613 31 27 31ZM24.3913 36.25C24.7513 36.25 25.0435 36.544 25.0435 36.9062C25.0435 37.0375 25.513 37.3709 26.3478 37.5008V35.5938C25.9878 35.5938 25.6957 35.2997 25.6957 34.9375C25.6957 34.5752 25.9878 34.2812 26.3478 34.2812C26.3478 33.919 26.64 33.625 27 33.625C27.36 33.625 27.6522 33.919 27.6522 34.2812C28.0122 34.2812 28.3043 34.5752 28.3043 34.9375C28.3043 35.2997 28.0122 35.5938 27.6522 35.5938V37.5008C28.487 37.3709 28.9565 37.0375 28.9565 36.9062C28.9565 36.544 29.2487 36.25 29.6087 36.25C29.9687 36.25 30.2609 36.544 30.2609 36.9062C30.2609 38.0284 28.8587 38.875 27 38.875C25.1413 38.875 23.7391 38.0284 23.7391 36.9062C23.7391 36.544 24.0313 36.25 24.3913 36.25ZM36.7826 43.2784C35.9713 44.1499 29.8317 44.1355 27.7839 44.1263L27 44.125H26.4783C24.3783 44.1224 18.0626 44.1355 17.2174 43.2758V42.0814C18.6483 41.9121 22.6096 41.5 27 41.5C31.4309 41.5 35.3622 41.9108 36.7826 42.0801V43.2784Z" fill="white"/>
</svg>
