<svg width="68" height="68" viewBox="0 0 68 68" fill="none" xmlns="http://www.w3.org/2000/svg">
<path d="M29.8036 13.0187H38.1988V4.62205H29.8036V13.0187ZM50.3611 0V17.6419H68V0H50.3611ZM63.3769 29.8011H54.9818V38.1977H63.3769V29.8011ZM38.1988 54.9801H29.8036V63.3768H38.1988V54.9801ZM14.1722 50.3581H0V68H17.6425V53.8333L25.0267 46.4441H42.9733L50.3599 53.8333V68H67.9988V50.3581H53.8278L46.4436 42.9736V21.5547H25.0267L17.6425 14.1691V0.00120327H0V17.6431H14.1698L21.5564 25.0276V42.9748L14.1722 50.3593V50.3581ZM31.8483 34.6792C30.6932 33.9591 29.925 32.6789 29.925 31.2184C29.925 28.968 31.751 27.1409 34 27.1409C36.249 27.1409 38.0786 28.968 38.0786 31.2184C38.0786 32.6789 37.3104 33.9591 36.1529 34.6792L38.557 40.8567H29.4466L31.8483 34.6792ZM13.0206 38.1965V29.7999H4.62549V38.1965H13.0206Z" fill="#E5E5E5"/>
</svg>
