<svg width="92" height="92" viewBox="0 0 92 92" fill="none" xmlns="http://www.w3.org/2000/svg">
<rect width="92" height="92" rx="20" fill="#3277FF"/>
<path d="M37.1572 71.5184L39.8691 61.4844C36.75 60.2484 34.0932 58.0973 32.23 55.3623L23.2871 60.6047C26.5307 65.6385 31.4021 69.5245 37.1572 71.5184Z" fill="white" fill-opacity="0.3"/>
<path d="M62.6501 46C62.6501 51.7736 59.7114 56.8609 55.248 59.8475L60.5376 68.7563C68.0325 63.9584 73.0004 55.5594 73.0004 46H62.6501Z" fill="white" fill-opacity="0.5"/>
<path d="M57.9241 70.2312L52.6124 61.2852C50.5855 62.1632 48.3497 62.6498 46.0002 62.6498C44.8872 62.6498 43.7997 62.5406 42.7479 62.3324L40.043 72.3407C41.9595 72.7723 43.9532 73.0001 46.0002 73.0001C50.2805 73.0001 54.3282 72.0041 57.9241 70.2312Z" fill="white" fill-opacity="0.4"/>
<path opacity="0.3" d="M73 46C73 31.0883 60.9117 19 46 19C31.0883 19 19 31.0883 19 46C19 50.3091 20.0095 54.3825 21.8048 57.9965L30.7711 52.7404C29.8577 50.6798 29.3502 48.3991 29.3502 46C29.3502 36.8046 36.8046 29.3503 46 29.3503C55.1954 29.3503 62.6497 36.8046 62.6497 46H73Z" fill="url(#paint0_linear_40107_93901)"/>
<path fill-rule="evenodd" clip-rule="evenodd" d="M48.1292 51.7583C51.2381 49.9634 71.726 30.6292 71.726 30.6292C71.726 30.6292 44.7381 38.7051 41.6292 40.5C38.5203 42.2949 37.4551 46.2703 39.25 49.3792C41.0449 52.4881 45.0203 53.5533 48.1292 51.7583ZM46.1292 48.2942C47.3249 47.6039 47.7346 46.0749 47.0442 44.8792C46.3539 43.6834 44.8249 43.2737 43.6292 43.9641C42.4334 44.6545 42.0237 46.1834 42.7141 47.3792C43.4045 48.5749 44.9334 48.9846 46.1292 48.2942Z" fill="white"/>
<defs>
<linearGradient id="paint0_linear_40107_93901" x1="12" y1="33" x2="63" y2="44" gradientUnits="userSpaceOnUse">
<stop stop-color="white"/>
<stop offset="1" stop-color="white" stop-opacity="0"/>
</linearGradient>
</defs>
</svg>
