<svg width="92" height="92" viewBox="0 0 92 92" fill="none" xmlns="http://www.w3.org/2000/svg">
<rect width="92" height="92" rx="20" fill="#3277FF"/>
<path d="M74.2422 44.2422H70.3492V43.9855C70.3492 43.0633 69.6016 42.3156 68.6793 42.3156H67.5836C67.0234 39.0145 65.7273 35.9652 63.8664 33.3438L64.6422 32.5691C65.2937 31.9164 65.2937 30.8594 64.6422 30.2066L64.4611 30.0256L67.799 26.6868C68.4854 26.0003 68.4852 24.8873 67.7986 24.2009C67.1121 23.5145 65.9991 23.5146 65.3127 24.2013L61.9752 27.5397L61.7934 27.3578C61.1406 26.7063 60.0836 26.7063 59.4309 27.3578L58.6562 28.1336C56.0348 26.2727 52.9855 24.9766 49.6844 24.4164V23.3207C49.6844 22.3984 48.9367 21.6508 48.0145 21.6508H47.7578V17.7578C47.7578 16.7875 46.9703 16 46 16C45.0297 16 44.2422 16.7875 44.2422 17.7578V21.6508H43.9855C43.0633 21.6508 42.3156 22.3984 42.3156 23.3207V24.4164C39.0145 24.9766 35.9652 26.2727 33.3438 28.1336L32.5691 27.3578C31.9164 26.7063 30.8594 26.7063 30.2066 27.3578L30.0251 27.5393L26.687 24.2011C26.0007 23.5146 24.8876 23.5146 24.2011 24.2011C23.5146 24.8876 23.5146 26.0005 24.2011 26.687L27.5392 30.0251L27.3577 30.2066C26.7061 30.8594 26.7061 31.9164 27.3577 32.5691L28.1335 33.3438C26.2725 35.9652 24.9764 39.0145 24.4163 42.3156H23.3206C22.3983 42.3156 21.6507 43.0633 21.6507 43.9855V44.2422H17.7578C16.787 44.2422 16 45.0292 16 46C16 46.9708 16.787 47.7578 17.7578 47.7578H21.6508V48.0145C21.6508 48.9367 22.3984 49.6844 23.3207 49.6844H24.4164C24.9766 52.9855 26.2727 56.0348 28.1336 58.6562L27.3578 59.4309C26.7063 60.0836 26.7063 61.1406 27.3578 61.7934L27.5397 61.9752L24.2013 65.3127C23.5146 65.9991 23.5145 67.112 24.2009 67.7986C24.8871 68.4851 26.0001 68.4855 26.6868 67.799L30.0256 64.4611L30.2066 64.6422C30.8594 65.2937 31.9164 65.2937 32.5691 64.6422L33.3438 63.8664C35.9652 65.7273 39.0145 67.0234 42.3156 67.5836V68.6793C42.3156 69.6016 43.0633 70.3492 43.9855 70.3492H44.2422V74.2422C44.2422 75.2125 45.0297 76 46 76C46.9703 76 47.7578 75.2125 47.7578 74.2422V70.3492H48.0145C48.9367 70.3492 49.6844 69.6016 49.6844 68.6793V67.5836C52.9855 67.0234 56.0348 65.7273 58.6562 63.8664L59.4309 64.6422C60.0836 65.2937 61.1406 65.2937 61.7934 64.6422L61.9749 64.4607L65.313 67.7987C65.9993 68.4852 67.1124 68.4854 67.7989 67.7987C68.4854 67.1123 68.4854 65.9993 67.7989 65.3129L64.4608 61.9748L64.6423 61.7932C65.2939 61.1405 65.2939 60.0835 64.6423 59.4307L63.8665 58.6561C65.7275 56.0346 67.0236 52.9854 67.5837 49.6843H68.6794C69.6017 49.6843 70.3493 48.9366 70.3493 48.0143V47.7578H74.2422C75.213 47.7578 76 46.9708 76 46C76 45.0292 75.213 44.2422 74.2422 44.2422ZM61.5539 44.2422H51.8855C51.7641 43.8363 51.6029 43.4475 51.4045 43.0814L58.2409 36.245C60.0319 38.4895 61.2181 41.2371 61.5539 44.2422ZM55.755 33.7591L48.9186 40.5955C48.5525 40.3971 48.1637 40.2359 47.7578 40.1145V30.4461C50.7629 30.7819 53.5105 31.9681 55.755 33.7591ZM44.2422 30.4461V40.1145C43.8363 40.2359 43.4475 40.3971 43.0814 40.5955L36.245 33.7591C38.4895 31.9681 41.2371 30.7819 44.2422 30.4461ZM33.7592 36.245L40.5957 43.0814C40.3973 43.4475 40.236 43.8363 40.1146 44.2422H30.4462C30.7819 41.2371 31.9681 38.4895 33.7592 36.245ZM30.4461 47.7578H40.1145C40.2359 48.1637 40.3971 48.5525 40.5955 48.9186L33.7591 55.755C31.9681 53.5105 30.7819 50.7629 30.4461 47.7578ZM36.245 58.2408L43.0814 51.4043C43.4475 51.6027 43.8363 51.764 44.2422 51.8854V61.5538C41.2371 61.2181 38.4895 60.0319 36.245 58.2408ZM47.7578 61.5539V51.8855C48.1637 51.7641 48.5525 51.6029 48.9186 51.4045L55.755 58.2409C53.5105 60.0319 50.7629 61.2181 47.7578 61.5539ZM58.2409 55.755L51.4045 48.9186C51.6029 48.5525 51.7641 48.1637 51.8855 47.7578H61.5539C61.2181 50.7629 60.0319 53.5105 58.2409 55.755Z" fill="white"/>
</svg>
