<svg width="36" height="36" viewBox="0 0 36 36" fill="none" xmlns="http://www.w3.org/2000/svg">
<rect width="36" height="36" rx="4" fill="#3277FF"/>
<path d="M23.2595 8.27693C23.4753 8.09091 23.6912 7.90484 23.9037 7.71436L23.9388 7.89889C24.0326 8.39111 24.1263 8.88305 24.2148 9.37675C23.9272 9.61954 23.6216 9.83576 23.316 10.052C23.0129 10.2664 22.7098 10.4809 22.4242 10.7213C22.4036 10.6053 22.3832 10.4893 22.3628 10.3732C22.2977 10.0026 22.2326 9.63171 22.1596 9.26292C22.5141 8.91939 22.8867 8.59823 23.2595 8.27693Z" fill="white"/>
<path fill-rule="evenodd" clip-rule="evenodd" d="M19.8872 8.2839C19.5557 8.95362 19.2028 9.66649 18.5819 10.0865C18.174 10.3668 17.6607 10.3592 17.2056 10.2286C16.8218 11.2989 16.3456 12.3348 15.753 13.2959C15.318 13.2747 14.8844 13.3045 14.451 13.3342C14.0398 13.3624 13.6288 13.3906 13.2165 13.3753C13.3234 13.6186 13.4015 13.8771 13.4796 14.1357C13.6171 14.591 13.7547 15.0464 14.0496 15.4182C14.2946 15.7345 14.6952 15.8261 15.0667 15.8185C16.1493 15.8346 17.2405 16.2028 18.07 16.9469C17.1256 18.7399 16.8305 20.8997 17.2645 22.8974C17.281 23.0125 17.3057 23.127 17.3304 23.2417C17.3756 23.4513 17.4209 23.6612 17.4157 23.8745C16.5033 24.8761 15.1285 25.3123 13.8308 25.2466C12.8231 25.2245 11.8591 24.8112 11.026 24.2359C9.98996 23.5025 9.27603 22.3435 8.9147 21.099C8.36943 19.2342 8.54683 17.1692 9.32037 15.4044C10.003 13.9294 11.1326 12.7745 12.238 11.6443C12.2994 11.5816 12.3607 11.5189 12.4218 11.4563C12.271 11.495 12.1169 11.5227 11.9627 11.5505C11.6879 11.6 11.413 11.6495 11.1568 11.7611C9.14371 13.179 7.9354 15.655 7.74856 18.1662C7.59298 20.0272 7.97466 21.9585 8.91833 23.5514C9.88381 24.9861 11.1786 26.2841 12.8137 26.7998C13.5618 27.0511 14.3543 27.0114 15.1271 26.9678C16.5927 26.8257 17.9137 26.006 18.9955 24.9968C20.9003 26.4384 23.5997 26.6882 25.6667 25.4796C26.6968 24.8517 27.5983 23.98 28.2476 22.9265C29.8383 20.3687 29.9946 16.9316 28.7245 14.1951C28.1923 13.0507 27.3977 12.0216 26.3755 11.3264C25.687 10.8588 24.8008 10.7076 24.028 11.0246C23.7728 12.3707 23.7473 13.9086 24.5696 15.0561C24.5941 15.0568 24.6187 15.0577 24.6434 15.0586C24.8666 15.0665 25.0943 15.0746 25.3097 15.0003C25.6 14.9062 25.8659 14.7537 26.1319 14.6012C26.4083 14.4428 26.6846 14.2843 26.9884 14.1913C27.2096 14.1231 27.4423 14.1417 27.6705 14.16C27.6928 14.1618 27.715 14.1636 27.7372 14.1653C27.9778 14.8781 28.2134 15.5947 28.3763 16.3319C28.5304 17.0202 28.5224 17.7345 28.4628 18.4359C28.3305 19.617 27.8215 20.7316 27.0953 21.6369C26.0825 22.9043 24.6656 23.8111 23.1257 24.1633C21.9632 24.4345 20.7215 24.3497 19.6186 23.8684C20.3725 21.5559 20.2053 18.8942 19.0283 16.7689C19.7189 16.0599 20.4052 15.3471 21.0683 14.6099C20.744 14.5809 20.4045 14.5931 20.1101 14.7551C19.6633 14.9921 19.3231 15.371 18.9833 15.7494C18.8248 15.9258 18.6665 16.1021 18.4975 16.2639C18.3964 16.1836 18.2935 16.1053 18.1906 16.027C17.8959 15.8029 17.6008 15.5784 17.3459 15.3044C17.1184 15.066 16.8879 14.7742 16.8886 14.4174C16.8814 14.001 17.1911 13.671 17.5124 13.4754C18.5412 12.8413 19.3758 11.8375 19.772 10.6487C20.0315 9.88555 20.0701 9.04365 19.9021 8.25371L19.8872 8.2839ZM17.8919 21.3741C17.716 20.1502 17.9813 18.9034 18.459 17.7865C19.2216 19.3343 19.2551 21.2488 18.5208 22.8157C18.4581 22.6862 18.388 22.559 18.3177 22.4316C18.1332 22.0969 17.9477 21.7603 17.8919 21.3741Z" fill="white"/>
</svg>
