<svg width="20" height="20" viewBox="0 0 20 20" fill="none" xmlns="http://www.w3.org/2000/svg">
<rect x="0.5" y="0.5" width="19" height="19" rx="9.5" fill="#FFBE00"/>
<rect x="0.5" y="0.5" width="19" height="19" rx="9.5" stroke="#FFB320"/>
<path d="M10 3C10.5625 3 11.0312 3.2007 11.4062 3.60211C11.8021 3.98239 12 4.45775 12 5.02817C12 5.4507 11.875 5.84155 11.625 6.2007C11.375 6.53873 11.0521 6.78169 10.6562 6.92958V7.72183H12.6562V9.08451H10.6562V15.1056C11.1979 15 11.6875 14.8521 12.125 14.662C12.625 14.4507 13.0625 14.1866 13.4375 13.8697C13.8333 13.5528 14.1458 13.2042 14.375 12.8239L13.3438 11.7782L16 9.75V11.7782C16 12.4331 15.8125 13.0563 15.4375 13.6479C15.0833 14.2183 14.6042 14.7148 14 15.1373C13.4167 15.5599 12.7708 15.8873 12.0625 16.1197C11.3542 16.3732 10.6667 16.5 10 16.5C9.33333 16.5 8.64583 16.3732 7.9375 16.1197C7.22917 15.8873 6.58333 15.5599 6 15.1373C5.41667 14.7148 4.9375 14.2183 4.5625 13.6479C4.1875 13.0563 4 12.4331 4 11.7782V9.75L6.65625 11.7782L5.625 12.8239C5.85417 13.2042 6.15625 13.5528 6.53125 13.8697C6.92708 14.1866 7.375 14.4507 7.875 14.662C8.3125 14.8521 8.80208 15 9.34375 15.1056V9.08451H7.34375V7.72183H9.34375V6.92958C8.92708 6.78169 8.59375 6.53873 8.34375 6.2007C8.11458 5.84155 8 5.4507 8 5.02817C8 4.45775 8.1875 3.98239 8.5625 3.60211C8.95833 3.2007 9.4375 3 10 3ZM10 4.33099C9.8125 4.33099 9.65625 4.40493 9.53125 4.55282C9.40625 4.67958 9.34375 4.83803 9.34375 5.02817C9.34375 5.21831 9.40625 5.37676 9.53125 5.50352C9.65625 5.63028 9.8125 5.69366 10 5.69366C10.1875 5.69366 10.3438 5.63028 10.4688 5.50352C10.5938 5.37676 10.6562 5.21831 10.6562 5.02817C10.6562 4.83803 10.5938 4.67958 10.4688 4.55282C10.3438 4.40493 10.1875 4.33099 10 4.33099Z" fill="white"/>
</svg>
