<svg width="26" height="36" viewBox="0 0 26 36" fill="none" xmlns="http://www.w3.org/2000/svg">
<g clip-path="url(#clip0_38460_138136)">
<path d="M23.9471 19.446C25.2464 17.4799 26 15.1408 26 12.6307C26 5.65498 20.1797 0 13 0C5.8203 0 0 5.65498 0 12.6307C0 15.1408 0.753581 17.4799 2.05292 19.446C3.12621 21.2533 4.67983 23.3931 6.24675 25.2615C9.05389 28.6088 11.186 32.9867 12.2786 35.5627C12.5259 36.1457 13.4741 36.1457 13.7214 35.5627C14.814 32.9867 16.9461 28.6088 19.7532 25.2615C21.3202 23.3931 22.8738 21.2533 23.9471 19.446Z" fill="#FF8233"/>
<path d="M9 12.7059L11.6471 15.353L16.9412 10.0588" stroke="white" stroke-width="2.5" stroke-linecap="round" stroke-linejoin="round"/>
</g>
<defs>
<clipPath id="clip0_38460_138136">
<rect width="26" height="36" fill="white"/>
</clipPath>
</defs>
</svg>
