<svg width="26" height="36" viewBox="0 0 26 36" fill="none" xmlns="http://www.w3.org/2000/svg">
<g clip-path="url(#clip0_38460_138139)">
<path d="M23.9471 19.446C25.2464 17.4799 26 15.1408 26 12.6307C26 5.65498 20.1797 0 13 0C5.8203 0 0 5.65498 0 12.6307C0 15.1408 0.753581 17.4799 2.05292 19.446C3.12621 21.2533 4.67983 23.3931 6.24675 25.2615C9.05389 28.6088 11.186 32.9867 12.2786 35.5627C12.5259 36.1457 13.4741 36.1457 13.7214 35.5627C14.814 32.9867 16.9461 28.6088 19.7532 25.2615C21.3202 23.3931 22.8738 21.2533 23.9471 19.446Z" fill="#A157FF"/>
<path d="M16.1758 12.8066C16.6081 13.092 16.6081 13.7074 16.1758 13.9928L11.1651 17.3016C10.6709 17.6279 10 17.2864 10 16.7085L10 10.091C10 9.51306 10.6709 9.17153 11.1651 9.49787L16.1758 12.8066Z" fill="white"/>
</g>
<defs>
<clipPath id="clip0_38460_138139">
<rect width="26" height="36" fill="white"/>
</clipPath>
</defs>
</svg>
