<?xml version="1.0" encoding="UTF-8"?>
<svg xmlns="http://www.w3.org/2000/svg" xmlns:xlink="http://www.w3.org/1999/xlink" width="92px" height="92px" viewBox="0 0 92 92" version="1.1">
<g id="surface1">
<path style=" stroke:none;fill-rule:nonzero;fill:rgb(20%,46.666667%,100%);fill-opacity:1;" d="M 19.488281 -0.289062 C 20.125 -0.296875 20.761719 -0.300781 21.417969 -0.304688 C 23.507812 -0.320312 25.597656 -0.316406 27.691406 -0.3125 C 29.152344 -0.316406 30.613281 -0.320312 32.078125 -0.324219 C 35.136719 -0.328125 38.195312 -0.328125 41.253906 -0.320312 C 45.164062 -0.3125 49.074219 -0.328125 52.984375 -0.347656 C 56.003906 -0.359375 59.019531 -0.359375 62.039062 -0.355469 C 63.480469 -0.355469 64.921875 -0.359375 66.363281 -0.371094 C 68.382812 -0.378906 70.398438 -0.371094 72.417969 -0.359375 C 73.007812 -0.367188 73.597656 -0.375 74.207031 -0.382812 C 79.445312 -0.316406 83.84375 1.472656 87.550781 5.253906 C 87.941406 5.636719 88.332031 6.019531 88.734375 6.414062 C 91.847656 10.597656 92.316406 14.4375 92.289062 19.488281 C 92.296875 20.125 92.300781 20.761719 92.304688 21.417969 C 92.320312 23.507812 92.316406 25.597656 92.3125 27.691406 C 92.316406 29.152344 92.320312 30.613281 92.324219 32.078125 C 92.328125 35.136719 92.328125 38.195312 92.320312 41.253906 C 92.3125 45.164062 92.328125 49.074219 92.347656 52.984375 C 92.359375 56.003906 92.359375 59.019531 92.355469 62.039062 C 92.355469 63.480469 92.359375 64.921875 92.371094 66.363281 C 92.378906 68.382812 92.371094 70.398438 92.359375 72.417969 C 92.371094 73.304688 92.371094 73.304688 92.382812 74.207031 C 92.316406 79.445312 90.527344 83.84375 86.742188 87.550781 C 86.171875 88.136719 86.171875 88.136719 85.585938 88.734375 C 81.402344 91.847656 77.5625 92.316406 72.511719 92.289062 C 71.558594 92.296875 71.558594 92.296875 70.582031 92.304688 C 68.492188 92.320312 66.402344 92.316406 64.308594 92.3125 C 62.847656 92.316406 61.386719 92.320312 59.921875 92.324219 C 56.863281 92.328125 53.804688 92.328125 50.746094 92.320312 C 46.835938 92.3125 42.925781 92.328125 39.015625 92.347656 C 35.996094 92.359375 32.980469 92.359375 29.960938 92.355469 C 28.519531 92.355469 27.078125 92.359375 25.636719 92.371094 C 23.617188 92.378906 21.601562 92.371094 19.582031 92.359375 C 18.992188 92.367188 18.402344 92.375 17.792969 92.382812 C 12.554688 92.316406 8.15625 90.527344 4.445312 86.742188 C 3.863281 86.171875 3.863281 86.171875 3.265625 85.585938 C 0.152344 81.402344 -0.316406 77.5625 -0.289062 72.511719 C -0.296875 71.558594 -0.296875 71.558594 -0.304688 70.582031 C -0.320312 68.492188 -0.316406 66.402344 -0.3125 64.308594 C -0.316406 62.847656 -0.320312 61.386719 -0.324219 59.921875 C -0.328125 56.863281 -0.328125 53.804688 -0.320312 50.746094 C -0.3125 46.835938 -0.328125 42.925781 -0.347656 39.015625 C -0.359375 35.996094 -0.359375 32.980469 -0.355469 29.960938 C -0.355469 28.519531 -0.359375 27.078125 -0.371094 25.636719 C -0.378906 23.617188 -0.371094 21.601562 -0.359375 19.582031 C -0.367188 18.992188 -0.375 18.402344 -0.382812 17.792969 C -0.316406 12.554688 1.472656 8.15625 5.253906 4.445312 C 5.636719 4.058594 6.019531 3.667969 6.414062 3.265625 C 10.597656 0.152344 14.4375 -0.316406 19.488281 -0.289062 Z M 19.488281 -0.289062 "/>
<path style=" stroke:none;fill-rule:nonzero;fill:rgb(98.039216%,98.823529%,100%);fill-opacity:1;" d="M 53.367188 15.140625 C 57.507812 17.429688 60.792969 20.695312 62.53125 25.15625 C 64.296875 39.925781 56.144531 51.367188 47.4375 62.53125 C 45.515625 62.484375 44.257812 62.234375 42.886719 60.835938 C 41.859375 59.472656 40.910156 58.078125 39.980469 56.648438 C 39.636719 56.132812 39.292969 55.621094 38.941406 55.089844 C 35.832031 50.34375 33.226562 45.425781 30.90625 40.25 C 30.632812 39.679688 30.359375 39.109375 30.074219 38.519531 C 28.609375 34.019531 28.585938 27.726562 30.121094 23.253906 C 30.992188 21.792969 31.882812 20.628906 33.0625 19.40625 C 33.398438 19.054688 33.738281 18.707031 34.085938 18.34375 C 39.699219 13.179688 46.5 12.011719 53.367188 15.140625 Z M 53.367188 15.140625 "/>
<path style=" stroke:none;fill-rule:nonzero;fill:rgb(22.745098%,48.627451%,100%);fill-opacity:1;" d="M 48.875 21.5625 C 51.539062 22.847656 52.855469 23.980469 54.578125 26.367188 C 55.59375 29.527344 55.492188 32.027344 54.625 35.21875 C 52.925781 38.074219 51.378906 39.425781 48.15625 40.25 C 45.132812 40.578125 43.523438 40.449219 40.789062 39.082031 C 37.703125 36.417969 36.824219 34.242188 36.25 30.234375 C 36.355469 27.113281 37.800781 25.457031 39.886719 23.25 C 42.496094 20.914062 45.550781 21.164062 48.875 21.5625 Z M 48.875 21.5625 "/>
<path style=" stroke:none;fill-rule:nonzero;fill:rgb(93.333334%,95.294118%,100%);fill-opacity:1;" d="M 28.03125 70.4375 C 29.289062 71.167969 30.542969 71.902344 31.78125 72.660156 C 33.996094 73.789062 35.667969 73.652344 38.09375 73.3125 C 39.59375 72.636719 41.023438 71.867188 42.472656 71.089844 C 44.53125 70.109375 45.921875 70.058594 48.15625 70.4375 C 49.414062 71.167969 50.667969 71.902344 51.90625 72.660156 C 54.121094 73.789062 55.792969 73.652344 58.21875 73.3125 C 59.71875 72.636719 61.152344 71.867188 62.601562 71.089844 C 64.667969 70.105469 66.03125 70.0625 68.28125 70.4375 C 69.792969 71.078125 71.226562 71.796875 72.667969 72.589844 C 74.117188 73.402344 74.117188 73.402344 76.140625 74.03125 C 77.625 74.75 77.625 74.75 78.253906 76.234375 C 78.285156 76.691406 78.3125 77.152344 78.34375 77.625 C 78.105469 77.863281 77.871094 78.097656 77.625 78.34375 C 74.882812 78.128906 72.851562 77.757812 70.390625 76.5 C 67.921875 75.292969 66.691406 75.085938 63.96875 75.46875 C 62.996094 75.917969 62.039062 76.402344 61.09375 76.90625 C 58.523438 78.269531 56.863281 78.835938 53.90625 78.34375 C 52.425781 77.652344 50.992188 76.886719 49.546875 76.121094 C 47.46875 75.148438 46.105469 75.09375 43.84375 75.46875 C 42.875 75.921875 41.914062 76.402344 40.96875 76.90625 C 38.398438 78.269531 36.738281 78.835938 33.78125 78.34375 C 32.300781 77.652344 30.867188 76.886719 29.421875 76.121094 C 27.34375 75.148438 25.980469 75.09375 23.71875 75.46875 C 22.222656 76.15625 20.78125 76.914062 19.335938 77.703125 C 17.621094 78.507812 16.242188 78.578125 14.375 78.34375 C 13.925781 76.996094 13.925781 76.996094 13.65625 75.46875 C 15.28125 73.84375 16.550781 73.367188 18.6875 72.546875 C 24.929688 70.144531 24.929688 70.144531 28.03125 70.4375 Z M 28.03125 70.4375 "/>
<path style=" stroke:none;fill-rule:nonzero;fill:rgb(93.333334%,95.686275%,100%);fill-opacity:1;" d="M 68.28125 58.9375 C 69.792969 59.578125 71.222656 60.296875 72.664062 61.078125 C 74.269531 61.941406 75.917969 62.609375 77.625 63.25 C 77.625 64.199219 77.625 65.148438 77.625 66.125 C 75.773438 66.820312 74.53125 67.0625 72.6875 66.25 C 72.214844 65.988281 71.738281 65.722656 71.246094 65.453125 C 68.429688 63.933594 66.492188 63.496094 63.25 63.96875 C 61.949219 64.609375 61.949219 64.609375 60.6875 65.40625 C 58.042969 66.945312 56.894531 67.296875 53.90625 66.84375 C 51.839844 65.765625 51.839844 65.765625 50.3125 64.6875 C 51.03125 63.25 51.03125 63.25 52.46875 61.8125 C 53.863281 61.8125 55.257812 61.820312 56.648438 61.902344 C 58.5 61.796875 59.570312 61.265625 61.183594 60.375 C 63.722656 58.992188 65.335938 58.445312 68.28125 58.9375 Z M 68.28125 58.9375 "/>
<path style=" stroke:none;fill-rule:nonzero;fill:rgb(93.333334%,95.686275%,100%);fill-opacity:1;" d="M 29.507812 59.566406 C 29.941406 59.832031 30.371094 60.101562 30.816406 60.375 C 32.992188 61.578125 34.398438 61.957031 36.882812 61.8125 C 37.753906 61.8125 38.628906 61.8125 39.53125 61.8125 C 40.96875 63.25 40.96875 63.25 41.6875 64.6875 C 38.921875 66.636719 37.160156 67.308594 33.78125 66.84375 C 32.824219 66.390625 31.882812 65.910156 30.953125 65.40625 C 28.15625 63.917969 26.207031 63.503906 23 63.96875 C 21.675781 64.632812 21.675781 64.632812 20.394531 65.453125 C 17.96875 66.84375 17.96875 66.84375 15.859375 66.664062 C 15.367188 66.484375 14.878906 66.308594 14.375 66.125 C 14.375 65.175781 14.375 64.226562 14.375 63.25 C 15.835938 62.519531 17.304688 61.804688 18.777344 61.09375 C 20.003906 60.492188 20.003906 60.492188 21.253906 59.882812 C 24.222656 58.746094 26.523438 58.296875 29.507812 59.566406 Z M 29.507812 59.566406 "/>
<path style=" stroke:none;fill-rule:nonzero;fill:rgb(96.470588%,97.647059%,100%);fill-opacity:1;" d="M 48.15625 25.15625 C 50.265625 26.640625 50.265625 26.640625 51.75 28.75 C 51.859375 31.863281 51.515625 33.226562 49.460938 35.578125 C 47.4375 36.65625 47.4375 36.65625 45.234375 36.703125 C 42.539062 35.726562 41.621094 34.863281 40.25 32.34375 C 40.25 29.601562 40.359375 28.015625 42.179688 25.921875 C 44.410156 24.898438 45.726562 24.761719 48.15625 25.15625 Z M 48.15625 25.15625 "/>
<path style=" stroke:none;fill-rule:nonzero;fill:rgb(95.294118%,96.862745%,100%);fill-opacity:1;" d="M 69.71875 48.15625 C 71.609375 48.921875 73.035156 49.886719 74.75 51.03125 C 75.9375 51.535156 77.132812 52.027344 78.34375 52.46875 C 78.105469 53.417969 77.871094 54.367188 77.625 55.34375 C 73.742188 55.015625 71.625 54.492188 68.28125 52.46875 C 64.308594 51.851562 61.578125 53.433594 58.21875 55.34375 C 57.980469 54.871094 57.746094 54.394531 57.5 53.90625 C 58.066406 53.078125 58.636719 52.257812 59.207031 51.4375 C 59.523438 50.976562 59.839844 50.519531 60.167969 50.046875 C 62.445312 47.164062 66.382812 47.78125 69.71875 48.15625 Z M 69.71875 48.15625 "/>
<path style=" stroke:none;fill-rule:nonzero;fill:rgb(95.686275%,96.862745%,100%);fill-opacity:1;" d="M 29.46875 48.15625 C 31.898438 49.980469 33.355469 51.816406 34.5 54.625 C 32.667969 54.320312 31.152344 54.039062 29.515625 53.140625 C 27.398438 52.179688 26.035156 52.203125 23.71875 52.46875 C 22.214844 53.148438 20.785156 53.914062 19.335938 54.703125 C 17.621094 55.507812 16.242188 55.578125 14.375 55.34375 C 14.136719 54.394531 13.902344 53.445312 13.65625 52.46875 C 23.632812 46.710938 23.632812 46.710938 29.46875 48.15625 Z M 29.46875 48.15625 "/>
</g>
</svg>
