<?xml version="1.0" encoding="UTF-8"?>
<svg xmlns="http://www.w3.org/2000/svg" xmlns:xlink="http://www.w3.org/1999/xlink" width="92px" height="92px" viewBox="0 0 92 92" version="1.1">
<g id="surface1">
<path style=" stroke:none;fill-rule:nonzero;fill:rgb(89.803922%,89.803922%,89.803922%);fill-opacity:1;" d="M 19.488281 -0.289062 C 20.125 -0.296875 20.761719 -0.300781 21.417969 -0.304688 C 23.507812 -0.320312 25.597656 -0.316406 27.691406 -0.3125 C 29.152344 -0.316406 30.613281 -0.320312 32.078125 -0.324219 C 35.136719 -0.328125 38.195312 -0.328125 41.253906 -0.320312 C 45.164062 -0.3125 49.074219 -0.328125 52.984375 -0.347656 C 56.003906 -0.359375 59.019531 -0.359375 62.039062 -0.355469 C 63.480469 -0.355469 64.921875 -0.359375 66.363281 -0.371094 C 68.382812 -0.378906 70.398438 -0.371094 72.417969 -0.359375 C 73.007812 -0.367188 73.597656 -0.375 74.207031 -0.382812 C 79.445312 -0.316406 83.84375 1.472656 87.550781 5.253906 C 87.941406 5.636719 88.332031 6.019531 88.734375 6.414062 C 91.847656 10.597656 92.316406 14.4375 92.289062 19.488281 C 92.296875 20.125 92.300781 20.761719 92.304688 21.417969 C 92.320312 23.507812 92.316406 25.597656 92.3125 27.691406 C 92.316406 29.152344 92.320312 30.613281 92.324219 32.078125 C 92.328125 35.136719 92.328125 38.195312 92.320312 41.253906 C 92.3125 45.164062 92.328125 49.074219 92.347656 52.984375 C 92.359375 56.003906 92.359375 59.019531 92.355469 62.039062 C 92.355469 63.480469 92.359375 64.921875 92.371094 66.363281 C 92.378906 68.382812 92.371094 70.398438 92.359375 72.417969 C 92.371094 73.304688 92.371094 73.304688 92.382812 74.207031 C 92.316406 79.445312 90.527344 83.84375 86.742188 87.550781 C 86.171875 88.136719 86.171875 88.136719 85.585938 88.734375 C 81.402344 91.847656 77.5625 92.316406 72.511719 92.289062 C 71.558594 92.296875 71.558594 92.296875 70.582031 92.304688 C 68.492188 92.320312 66.402344 92.316406 64.308594 92.3125 C 62.847656 92.316406 61.386719 92.320312 59.921875 92.324219 C 56.863281 92.328125 53.804688 92.328125 50.746094 92.320312 C 46.835938 92.3125 42.925781 92.328125 39.015625 92.347656 C 35.996094 92.359375 32.980469 92.359375 29.960938 92.355469 C 28.519531 92.355469 27.078125 92.359375 25.636719 92.371094 C 23.617188 92.378906 21.601562 92.371094 19.582031 92.359375 C 18.992188 92.367188 18.402344 92.375 17.792969 92.382812 C 12.554688 92.316406 8.15625 90.527344 4.445312 86.742188 C 3.863281 86.171875 3.863281 86.171875 3.265625 85.585938 C 0.152344 81.402344 -0.316406 77.5625 -0.289062 72.511719 C -0.296875 71.558594 -0.296875 71.558594 -0.304688 70.582031 C -0.320312 68.492188 -0.316406 66.402344 -0.3125 64.308594 C -0.316406 62.847656 -0.320312 61.386719 -0.324219 59.921875 C -0.328125 56.863281 -0.328125 53.804688 -0.320312 50.746094 C -0.3125 46.835938 -0.328125 42.925781 -0.347656 39.015625 C -0.359375 35.996094 -0.359375 32.980469 -0.355469 29.960938 C -0.355469 28.519531 -0.359375 27.078125 -0.371094 25.636719 C -0.378906 23.617188 -0.371094 21.601562 -0.359375 19.582031 C -0.367188 18.992188 -0.375 18.402344 -0.382812 17.792969 C -0.316406 12.554688 1.472656 8.15625 5.253906 4.445312 C 5.636719 4.058594 6.019531 3.667969 6.414062 3.265625 C 10.597656 0.152344 14.4375 -0.316406 19.488281 -0.289062 Z M 19.488281 -0.289062 "/>
<path style=" stroke:none;fill-rule:nonzero;fill:rgb(99.607843%,99.607843%,99.607843%);fill-opacity:1;" d="M 53.367188 15.140625 C 57.898438 17.652344 60.925781 20.914062 62.53125 25.875 C 64.089844 38.871094 57.234375 50.039062 49.546875 59.96875 C 48.851562 60.828125 48.152344 61.683594 47.4375 62.53125 C 44.777344 62.386719 43.960938 61.9375 42.121094 59.945312 C 41.53125 59.125 40.953125 58.292969 40.382812 57.453125 C 40.078125 57.011719 39.769531 56.566406 39.449219 56.105469 C 34.234375 48.363281 27.539062 37.707031 28.75 28.03125 C 30.183594 22.480469 32.644531 19.03125 37.375 15.8125 C 42.660156 12.777344 47.855469 12.628906 53.367188 15.140625 Z M 53.367188 15.140625 "/>
<path style=" stroke:none;fill-rule:nonzero;fill:rgb(90.196079%,90.196079%,90.196079%);fill-opacity:1;" d="M 48.875 21.5625 C 52.007812 23.160156 54 24.75 55.34375 28.03125 C 55.730469 31.5 55.71875 33.046875 54.132812 36.164062 C 51.5625 39.148438 49.996094 40.125 46.046875 40.5625 C 42.96875 40.4375 41.160156 39.394531 38.8125 37.375 C 36.738281 34.886719 36.269531 32.710938 36.402344 29.464844 C 36.957031 26.316406 38.765625 24.355469 41.148438 22.371094 C 43.769531 21.296875 46.109375 21.074219 48.875 21.5625 Z M 48.875 21.5625 "/>
<path style=" stroke:none;fill-rule:nonzero;fill:rgb(98.823529%,98.823529%,98.823529%);fill-opacity:1;" d="M 29.558594 71.066406 C 30.003906 71.332031 30.449219 71.601562 30.90625 71.875 C 33.476562 73.238281 35.136719 73.804688 38.09375 73.3125 C 39.0625 72.859375 40.023438 72.378906 40.96875 71.875 C 43.539062 70.511719 45.199219 69.945312 48.15625 70.4375 C 49.636719 71.128906 51.070312 71.894531 52.515625 72.660156 C 54.59375 73.632812 55.957031 73.6875 58.21875 73.3125 C 59.1875 72.859375 60.148438 72.378906 61.09375 71.875 C 63.664062 70.511719 65.324219 69.945312 68.28125 70.4375 C 69.792969 71.078125 71.226562 71.796875 72.667969 72.589844 C 74.117188 73.402344 74.117188 73.402344 76.140625 74.03125 C 77.625 74.75 77.625 74.75 78.210938 76.277344 C 78.253906 76.722656 78.296875 77.167969 78.34375 77.625 C 76.246094 78.253906 74.683594 78.617188 72.617188 77.75 C 72.132812 77.488281 71.652344 77.222656 71.15625 76.953125 C 68.578125 75.550781 66.953125 74.972656 63.96875 75.46875 C 63 75.921875 62.039062 76.402344 61.09375 76.90625 C 58.523438 78.269531 56.863281 78.835938 53.90625 78.34375 C 52.425781 77.652344 50.992188 76.886719 49.546875 76.121094 C 47.46875 75.148438 46.105469 75.09375 43.84375 75.46875 C 42.875 75.921875 41.914062 76.402344 40.96875 76.90625 C 38.398438 78.269531 36.738281 78.835938 33.78125 78.34375 C 32.300781 77.652344 30.867188 76.886719 29.421875 76.121094 C 27.34375 75.148438 25.980469 75.09375 23.71875 75.46875 C 22.226562 76.179688 20.785156 76.957031 19.335938 77.75 C 17.480469 78.554688 16.238281 78.324219 14.375 77.625 C 14.375 76.675781 14.375 75.726562 14.375 74.75 C 15.835938 74.019531 17.304688 73.304688 18.777344 72.59375 C 20.003906 71.992188 20.003906 71.992188 21.253906 71.382812 C 24.253906 70.230469 26.535156 69.820312 29.558594 71.066406 Z M 29.558594 71.066406 "/>
<path style=" stroke:none;fill-rule:nonzero;fill:rgb(98.823529%,98.823529%,98.823529%);fill-opacity:1;" d="M 68.28125 58.9375 C 69.792969 59.578125 71.222656 60.296875 72.664062 61.078125 C 74.269531 61.941406 75.917969 62.609375 77.625 63.25 C 77.625 64.199219 77.625 65.148438 77.625 66.125 C 75.761719 66.824219 74.519531 67.054688 72.664062 66.25 C 72.179688 65.988281 71.699219 65.722656 71.203125 65.453125 C 68.609375 64.0625 66.960938 63.46875 63.96875 63.96875 C 62.488281 64.660156 61.058594 65.425781 59.621094 66.195312 C 57.589844 67.132812 56.101562 67.183594 53.90625 66.84375 C 51.839844 65.765625 51.839844 65.765625 50.3125 64.6875 C 51.03125 63.25 51.03125 63.25 52.46875 61.8125 C 53.863281 61.8125 55.257812 61.820312 56.648438 61.902344 C 58.5 61.796875 59.570312 61.265625 61.183594 60.375 C 63.722656 58.992188 65.335938 58.445312 68.28125 58.9375 Z M 68.28125 58.9375 "/>
<path style=" stroke:none;fill-rule:nonzero;fill:rgb(98.823529%,98.823529%,98.823529%);fill-opacity:1;" d="M 29.507812 59.566406 C 29.941406 59.832031 30.371094 60.101562 30.816406 60.375 C 32.992188 61.578125 34.398438 61.957031 36.882812 61.8125 C 37.753906 61.8125 38.628906 61.8125 39.53125 61.8125 C 40.96875 63.25 40.96875 63.25 41.6875 64.6875 C 38.921875 66.636719 37.160156 67.308594 33.78125 66.84375 C 32.808594 66.394531 31.851562 65.910156 30.90625 65.40625 C 28.335938 64.042969 26.675781 63.476562 23.71875 63.96875 C 22.226562 64.679688 20.785156 65.457031 19.335938 66.25 C 17.480469 67.054688 16.238281 66.824219 14.375 66.125 C 14.375 65.175781 14.375 64.226562 14.375 63.25 C 15.835938 62.519531 17.304688 61.804688 18.777344 61.09375 C 20.003906 60.492188 20.003906 60.492188 21.253906 59.882812 C 24.222656 58.746094 26.523438 58.296875 29.507812 59.566406 Z M 29.507812 59.566406 "/>
<path style=" stroke:none;fill-rule:nonzero;fill:rgb(99.215686%,99.215686%,99.215686%);fill-opacity:1;" d="M 48.15625 25.15625 C 50.539062 26.917969 51.578125 28 52.242188 30.90625 C 51.75 33.0625 51.75 33.0625 49.863281 35.171875 C 47.4375 36.65625 47.4375 36.65625 45.191406 36.746094 C 42.554688 35.714844 41.605469 34.835938 40.25 32.34375 C 40.25 29.601562 40.359375 28.015625 42.179688 25.921875 C 44.410156 24.898438 45.726562 24.761719 48.15625 25.15625 Z M 48.15625 25.15625 "/>
<path style=" stroke:none;fill-rule:nonzero;fill:rgb(99.215686%,99.215686%,99.215686%);fill-opacity:1;" d="M 69.71875 48.15625 C 71.609375 48.921875 73.035156 49.886719 74.75 51.03125 C 75.9375 51.535156 77.132812 52.027344 78.34375 52.46875 C 78.105469 53.417969 77.871094 54.367188 77.625 55.34375 C 73.742188 55.015625 71.625 54.492188 68.28125 52.46875 C 64.816406 52.035156 63.28125 52.867188 60.375 54.625 C 58.832031 54.332031 58.832031 54.332031 57.5 53.90625 C 58.066406 53.078125 58.636719 52.257812 59.207031 51.4375 C 59.523438 50.976562 59.839844 50.519531 60.167969 50.046875 C 62.445312 47.164062 66.382812 47.78125 69.71875 48.15625 Z M 69.71875 48.15625 "/>
<path style=" stroke:none;fill-rule:nonzero;fill:rgb(99.215686%,99.215686%,99.215686%);fill-opacity:1;" d="M 29.46875 48.15625 C 31.898438 49.980469 33.355469 51.816406 34.5 54.625 C 32.667969 54.320312 31.152344 54.039062 29.515625 53.140625 C 27.453125 52.207031 25.960938 52.238281 23.71875 52.46875 C 23.15625 52.808594 22.59375 53.152344 22.011719 53.5 C 19.445312 55.027344 17.335938 55.09375 14.375 55.34375 C 14.136719 54.394531 13.902344 53.445312 13.65625 52.46875 C 23.632812 46.710938 23.632812 46.710938 29.46875 48.15625 Z M 29.46875 48.15625 "/>
</g>
</svg>
